# xmcd CD database file
# 
# Track frame offsets:
# 	150
# 	10953
# 	20565
# 	33026
# 	45325
# 	54139
# 	65953
# 	77622
# 	91088
# 	111274
# 	124080
# 	136661
# 	150422
# 	170777
# 	188870
# 
# Disc length: 2741 seconds
# 
# Submitted via: Nero 6, 6, 1, 15
# 
# Revision: 0
# Processed by: cddbd v1.5.2PL0 Copyright (c) Steve Scherf et al.
#
DISCID=b40ab30f
DTITLE=Various Artist - Classic Bluegrass Collection, Volume 1 [CD-1 of 2)
DYEAR=1900
DGENRE=
TTITLE0=Bill Monroe - Molly and Tenbrooks[Bill Monroe]
TTITLE1=The Stanley Brothers - How Mountain Girls Can Love[The Stanley Brothers
TTITLE1=]
TTITLE2=Mac Wiseman - Love Letters In The Sand[Mac Wiseman]
TTITLE3=The Osborne Brothers And Red Allen - Once More[The Osborne Brothers And
TTITLE3=Red Allen]
TTITLE4=Buzz Busby - Me And The Jukebox[Buzz Busby]
TTITLE5=Jimmy Murphy - Electricity[Jimmy Murphy]
TTITLE6=The Stonemans - Orange Blossom Special[The Stonemans]
TTITLE7=The Seldom Scene - Little Georgia Rose[The Seldom Scene]
TTITLE8=James King - Thirty Years Of Farming[James King]
TTITLE9=Nashville Bluegrass Band - Blue Train[Nashville Bluegrass Band]
TTITLE10=The Bluegrass Cardinals - Girl At The Crossroads Bar[The Bluegrass Car
TTITLE10=dinals]
TTITLE11=The Country Gentlemen - Bringing Mary Home[The Country Gentlemen]
TTITLE12=David Grisman - Down In The Wilow Garden[David Grisman]
TTITLE13=Alison Krauss And Gillian Welch - I'll Fly Away[Alison Krauss And Gill
TTITLE13=ian Welch]
TTITLE14=The Del McCoury Band - Get Down On Your Knees And Pray[The Del McCoury
TTITLE14=Band]
EXTD=
EXTT0=
EXTT1=
EXTT2=
EXTT3=
EXTT4=
EXTT5=
EXTT6=
EXTT7=
EXTT8=
EXTT9=
EXTT10=
EXTT11=
EXTT12=
EXTT13=
EXTT14=
PLAYORDER=
